<svg width="620" height="1030" viewBox="0 0 620 1030" xmlns="http://www.w3.org/2000/svg">
  <!-- RAJIKA · Sorak Family Estate — front label. -->
  <rect width="620" height="1030" fill="#F6F1E7"/>
  <rect x="14" y="14" width="592" height="1002" rx="8" fill="none" stroke="#B68E3F" stroke-width="2.5"/>
  <rect x="22" y="22" width="576" height="986" rx="5" fill="none" stroke="#B68E3F" stroke-width="0.8" stroke-opacity="0.6"/>

  <!-- wordmark -->
  <text x="310" y="150" text-anchor="middle" font-family="'Cormorant Garamond',Georgia,serif"
        font-size="86" letter-spacing="14" fill="#B68E3F">RAJIKA</text>
  <text x="310" y="204" text-anchor="middle" font-family="Georgia,serif"
        font-size="27" letter-spacing="11" fill="#16273D">PLUM BRANDY</text>
  <g stroke="#16273D" stroke-width="1.4">
    <line x1="96" y1="196" x2="150" y2="196"/><line x1="470" y1="196" x2="524" y2="196"/>
  </g>

  <!-- engraving -->
  <image href="../assets/bridge-engraving.svg" x="34" y="244" width="552" height="392"/>

  <!-- crest -->
  <image href="../assets/plum-crest.svg" x="250" y="640" width="120" height="102"/>

  <!-- estate / origin -->
  <text x="310" y="778" text-anchor="middle" font-family="Georgia,serif" font-size="20"
        letter-spacing="4" fill="#B68E3F">SORAK FAMILY ORCHARD</text>
  <g stroke="#B68E3F" stroke-width="1"><line x1="118" y1="772" x2="158" y2="772"/><line x1="462" y1="772" x2="502" y2="772"/></g>
  <text x="310" y="804" text-anchor="middle" font-family="Georgia,serif" font-size="15"
        letter-spacing="3" fill="#16273D">LIČKO PETROVO SELO · CROATIA</text>

  <!-- navy footer band -->
  <rect x="15" y="826" width="590" height="136" fill="#16273D"/>
  <rect x="15" y="826" width="590" height="3" fill="#B68E3F"/>

  <!-- left block -->
  <text x="70" y="876" font-family="Georgia,serif" font-size="19" letter-spacing="3" fill="#F1E9D6">PREMIUM</text>
  <text x="70" y="900" font-family="Georgia,serif" font-size="19" letter-spacing="3" fill="#F1E9D6">PLUM BRANDY</text>
  <text x="70" y="926" font-family="Georgia,serif" font-size="10" letter-spacing="1" fill="#B68E3F">TRADITION · NATURE · HERITAGE</text>

  <!-- seal -->
  <image href="../assets/heritage-seal.svg" x="248" y="838" width="124" height="124"/>

  <!-- right block -->
  <text x="558" y="888" text-anchor="end" font-family="Georgia,serif" font-size="18" letter-spacing="2" fill="#F1E9D6">750 ML</text>
  <line x1="470" y1="872" x2="470" y2="916" stroke="#B68E3F" stroke-width="0.8" stroke-opacity="0.6"/>
  <text x="558" y="916" text-anchor="end" font-family="Georgia,serif" font-size="15" letter-spacing="2" fill="#B68E3F">ALC. 40% VOL.</text>

  <!-- bottom strip -->
  <text x="44" y="996" font-family="Georgia,serif" font-size="13" letter-spacing="2.5" fill="#16273D">SMALL BATCH DISTILLED</text>
  <text x="452" y="996" text-anchor="end" font-family="Georgia,serif" font-size="13" letter-spacing="2.5" fill="#16273D">PRODUCT OF</text>
  <path d="M462 990 c6 -3 12 0 16 3 c4 -2 9 1 7 5 c-3 3 -10 2 -15 1 c-5 -1 -11 -4 -8 -9 z"
        fill="#B68E3F" opacity="0.85"/>
  <text x="500" y="996" font-family="Georgia,serif" font-size="13" letter-spacing="2.5" fill="#16273D">CROATIA</text>
</svg>
