<svg width="100%" viewBox="0 0 200 170" xmlns="http://www.w3.org/2000/svg">
  <!-- Gold plum-and-leaf crest -->
  <g fill="none" stroke="#B68E3F" stroke-width="2" stroke-linecap="round" stroke-linejoin="round">
    <!-- stems -->
    <path d="M92 60 C90 42 86 34 78 28 M108 60 C110 44 114 36 122 30"/>
    <!-- leaves -->
    <path d="M78 28 C58 20 40 28 34 48 C56 54 74 46 78 28 Z" fill="#C9A24B" fill-opacity="0.18"/>
    <path d="M122 30 C142 22 160 30 166 50 C144 56 126 48 122 30 Z" fill="#C9A24B" fill-opacity="0.18"/>
    <path d="M44 40 C56 40 68 36 76 30" stroke-width="1"/>
    <path d="M156 42 C144 42 132 38 124 32" stroke-width="1"/>
  </g>
  <!-- plums -->
  <g fill="#C9A24B" fill-opacity="0.92" stroke="#9C7628" stroke-width="1.6">
    <ellipse cx="86" cy="98" rx="30" ry="36"/>
    <ellipse cx="116" cy="100" rx="30" ry="36"/>
  </g>
  <!-- plum creases + highlight -->
  <g fill="none" stroke="#8a661f" stroke-width="1.2" opacity="0.7">
    <path d="M86 64 C80 84 80 112 86 134"/>
    <path d="M116 66 C110 86 110 114 116 136"/>
  </g>
  <g fill="#F6F1E7" opacity="0.5"><ellipse cx="76" cy="86" rx="7" ry="10"/></g>
</svg>
